<?xml version="1.0" standalone="no"?>
<!DOCTYPE svg PUBLIC "-//W3C//DTD SVG 20010904//EN"
 "http://www.w3.org/TR/2001/REC-SVG-20010904/DTD/svg10.dtd">
<svg version="1.0" xmlns="http://www.w3.org/2000/svg"
 width="2000.000000pt" height="2000.000000pt" viewBox="0 0 2000.000000 2000.000000"
 preserveAspectRatio="xMidYMid meet">

<g transform="translate(0.000000,2000.000000) scale(0.100000,-0.100000)"
fill="#000000" stroke="none">
<path d="M0 10000 l0 -10000 10000 0 10000 0 0 10000 0 10000 -10000 0 -10000
0 0 -10000z m17055 7838 c221 -52 387 -147 534 -304 121 -129 195 -269 243
-461 l23 -88 0 -6985 0 -6985 -24 -95 c-50 -200 -131 -343 -275 -486 -142
-141 -299 -226 -506 -272 -70 -16 -559 -17 -7050 -17 -6491 0 -6980 1 -7050
17 -207 46 -364 131 -506 272 -180 179 -269 367 -294 621 -7 66 -10 2422 -8
7020 l3 6920 26 96 c55 196 125 323 256 459 171 180 381 277 653 304 19 1
3156 2 6970 2 6401 -2 6940 -3 7005 -18z"/>
<path d="M8788 14573 c12 -2 30 -2 40 0 9 3 -1 5 -23 4 -22 0 -30 -2 -17 -4z"/>
<path d="M10658 14573 c12 -2 32 -2 45 0 12 2 2 4 -23 4 -25 0 -35 -2 -22 -4z"/>
<path d="M12538 14573 c12 -2 32 -2 45 0 12 2 2 4 -23 4 -25 0 -35 -2 -22 -4z"/>
<path d="M11240 14367 c0 -2 15 -16 33 -33 l32 -29 -29 33 c-28 30 -36 37 -36
29z"/>
<path d="M13120 14366 c0 -2 8 -10 18 -17 15 -13 16 -12 3 4 -13 16 -21 21
-21 13z"/>
<path d="M8818 14283 c6 -2 18 -2 25 0 6 3 1 5 -13 5 -14 0 -19 -2 -12 -5z"/>
<path d="M10693 14283 c9 -2 23 -2 30 0 6 3 -1 5 -18 5 -16 0 -22 -2 -12 -5z"/>
<path d="M12573 14283 c9 -2 23 -2 30 0 6 3 -1 5 -18 5 -16 0 -22 -2 -12 -5z"/>
<path d="M10474 14198 l-19 -23 23 19 c21 18 27 26 19 26 -2 0 -12 -10 -23
-22z"/>
<path d="M12354 14198 l-19 -23 23 19 c21 18 27 26 19 26 -2 0 -12 -10 -23
-22z"/>
<path d="M10970 14185 c13 -14 26 -25 28 -25 3 0 -5 11 -18 25 -13 14 -26 25
-28 25 -3 0 5 -11 18 -25z"/>
<path d="M12850 14185 c13 -14 26 -25 28 -25 3 0 -5 11 -18 25 -13 14 -26 25
-28 25 -3 0 5 -11 18 -25z"/>
<path d="M11052 14015 c0 -16 2 -22 5 -12 2 9 2 23 0 30 -3 6 -5 -1 -5 -18z"/>
<path d="M12932 14015 c0 -16 2 -22 5 -12 2 9 2 23 0 30 -3 6 -5 -1 -5 -18z"/>
<path d="M8601 13810 c-89 -13 -194 -46 -266 -83 -123 -65 -245 -212 -249
-301 l-1 -29 160 -28 c88 -15 175 -31 193 -34 27 -5 32 -3 32 13 0 35 59 100
118 129 51 25 68 28 157 28 89 0 107 -3 160 -28 105 -49 174 -136 175 -218 l0
-35 188 -32 c103 -18 190 -32 195 -32 12 0 8 122 -7 175 -22 83 -63 152 -137
230 -80 84 -166 143 -272 185 -133 53 -318 78 -446 60z m339 -35 c296 -78 520
-314 520 -548 l0 -59 -27 6 c-33 7 -328 56 -336 56 -2 0 -7 23 -9 51 -9 91
-103 189 -217 225 -66 21 -179 24 -238 6 -51 -15 -120 -66 -148 -109 -11 -17
-24 -37 -30 -45 -9 -13 -33 -11 -185 17 -201 36 -194 30 -143 135 57 118 204
222 384 270 62 17 97 19 219 16 93 -2 168 -10 210 -21z"/>
<path d="M10472 13810 c-254 -36 -458 -185 -510 -372 -12 -45 -28 -38 178 -73
85 -14 165 -29 176 -31 17 -4 24 1 31 23 16 45 61 92 117 121 46 24 61 27 157
27 100 0 108 -2 173 -34 99 -51 150 -117 159 -207 l4 -39 188 -33 c209 -37
205 -38 205 33 1 188 -152 391 -375 501 -145 71 -352 105 -503 84z m296 -26
c167 -34 311 -112 416 -225 70 -76 104 -129 130 -204 20 -60 32 -170 19 -178
-5 -4 -86 7 -179 23 -92 17 -171 30 -175 30 -3 0 -9 22 -13 49 -8 62 -47 120
-115 171 -67 51 -145 75 -241 74 -117 0 -222 -56 -262 -138 l-20 -43 -179 31
c-119 20 -179 35 -179 43 0 7 10 38 21 70 29 77 136 184 229 230 64 31 171 68
220 76 66 11 257 6 328 -9z"/>
<path d="M12352 13810 c-255 -36 -470 -194 -512 -377 -9 -39 -23 -34 180 -68
85 -14 165 -29 176 -31 18 -5 24 1 33 28 27 80 127 139 247 146 183 10 335
-89 352 -229 l7 -54 150 -27 c256 -45 233 -45 241 -4 15 83 -31 223 -107 323
-154 204 -489 332 -767 293z m296 -26 c258 -53 480 -228 545 -431 20 -60 30
-154 19 -170 -6 -10 -47 -6 -177 17 -93 17 -172 30 -176 30 -3 0 -9 22 -13 49
-8 62 -47 120 -115 171 -67 51 -145 75 -242 74 -65 0 -85 -4 -142 -32 -67 -33
-113 -76 -129 -123 l-9 -26 -179 31 c-207 35 -201 30 -150 134 39 76 133 166
220 209 64 31 170 68 220 76 66 11 257 6 328 -9z"/>
<path d="M8455 13149 c-213 -31 -398 -149 -474 -301 -17 -33 -31 -73 -31 -87
0 -26 1 -26 168 -55 92 -15 179 -30 193 -33 22 -4 27 -1 32 24 8 37 66 95 125
124 40 20 62 24 147 24 87 0 107 -3 155 -26 105 -49 164 -120 177 -214 3 -25
8 -45 12 -45 3 0 84 -14 179 -30 96 -17 180 -30 188 -30 11 0 14 16 14 68 0
122 -49 231 -154 340 -115 121 -259 195 -449 231 -113 22 -182 24 -282 10z
m296 -35 c169 -32 321 -113 424 -227 95 -105 145 -217 145 -325 0 -37 -3 -43
-17 -38 -17 5 -314 56 -327 56 -3 0 -6 15 -6 33 -1 77 -78 176 -175 222 -116
55 -240 56 -347 2 -57 -29 -117 -88 -130 -128 -3 -10 -43 -6 -174 17 -189 33
-182 27 -142 111 59 126 224 239 403 278 83 19 247 18 346 -1z"/>
<path d="M10331 13150 c-229 -34 -434 -177 -489 -343 -11 -34 -17 -65 -14 -68
4 -3 81 -18 172 -33 91 -16 175 -30 186 -33 18 -4 26 4 44 42 105 218 535 156
589 -84 5 -25 8 -48 5 -52 -2 -4 -1 -10 4 -13 9 -6 351 -66 375 -66 14 0 17
10 17 58 -1 163 -94 323 -254 436 -179 127 -421 187 -635 156z m349 -45 c194
-51 356 -167 454 -324 41 -65 80 -220 62 -249 -3 -6 -71 2 -168 19 -90 16
-166 29 -170 29 -5 0 -8 14 -8 30 0 107 -130 228 -278 259 -76 16 -121 14
-197 -10 -55 -17 -78 -31 -122 -74 -29 -30 -53 -61 -53 -69 0 -9 -8 -16 -17
-16 -19 0 -326 52 -332 56 -9 7 37 102 70 147 72 95 215 179 363 213 82 18
308 12 396 -11z"/>
<path d="M12204 13149 c-147 -21 -302 -98 -392 -193 -55 -57 -98 -138 -104
-191 l-3 -30 190 -33 c104 -18 191 -29 193 -24 36 110 162 179 307 170 161
-11 305 -127 305 -248 0 -22 3 -40 8 -40 4 0 90 -14 191 -31 204 -35 201 -36
201 36 0 59 -26 149 -63 219 -39 74 -161 198 -241 245 -168 100 -401 147 -592
120z m379 -53 c211 -63 364 -183 448 -352 30 -60 52 -165 42 -202 -4 -18 -8
-18 -141 4 -75 13 -152 26 -169 29 -28 5 -33 10 -33 33 0 42 -46 126 -90 166
-82 74 -215 116 -323 102 -95 -12 -196 -80 -243 -161 -10 -18 -16 -17 -178 11
l-167 28 6 26 c36 149 211 286 429 336 100 22 310 13 419 -20z"/>
<path d="M8080 12507 c-137 -32 -267 -145 -309 -267 -10 -30 -331 -1783 -331
-1808 0 -5 -39 -12 -86 -16 -101 -7 -214 -43 -287 -90 -115 -73 -212 -218
-242 -361 -19 -89 -19 -260 0 -348 37 -176 156 -329 307 -397 43 -19 78 -38
78 -42 0 -4 -45 -256 -100 -560 -55 -304 -100 -573 -100 -598 0 -102 50 -217
129 -296 87 -87 117 -97 544 -174 210 -39 400 -70 423 -70 56 0 159 33 214 68
83 53 158 145 181 224 8 27 259 1397 259 1413 0 3 9 5 20 5 19 0 20 7 21 113
0 97 14 186 102 672 l102 560 148 3 147 3 0 139 0 140 -120 0 c-66 0 -120 3
-120 8 0 4 46 261 102 571 100 555 102 564 90 633 -17 96 -56 173 -121 239
-93 92 -125 103 -524 176 -396 72 -449 78 -527 60z m485 -107 c387 -70 419
-79 481 -126 62 -47 87 -78 120 -144 51 -103 48 -137 -60 -740 -54 -294 -99
-543 -102 -552 -5 -17 -39 -18 -525 -18 l-519 0 0 -140 0 -140 250 0 250 0 0
-675 0 -674 123 -3 122 -3 -111 -620 c-134 -741 -139 -766 -171 -828 -32 -64
-100 -129 -169 -163 -98 -48 -158 -45 -544 25 -184 33 -353 66 -375 72 -159
45 -268 194 -266 364 2 107 194 1141 212 1137 41 -10 241 -1 294 13 210 55
361 214 409 432 21 92 20 254 0 346 -50 226 -216 395 -428 438 -64 12 -67 14
-61 38 2 14 75 412 160 883 85 472 163 880 174 907 35 93 126 178 231 214 77
27 158 20 505 -43z m380 -1892 c-3 -18 -37 -202 -75 -408 l-68 -375 -1 408 -1
407 75 0 76 0 -6 -32z m-1560 -370 c-2 -7 -29 -157 -61 -333 -31 -176 -59
-322 -61 -325 -9 -10 -63 67 -85 120 -30 75 -33 287 -5 367 25 70 77 136 129
162 48 24 90 28 83 9z m118 -2 c117 -50 187 -237 159 -426 -26 -184 -114 -280
-254 -280 -107 0 -110 -69 20 638 16 89 19 92 75 68z"/>
<path d="M9940 12509 c-122 -24 -267 -142 -308 -251 -11 -29 -190 -991 -397
-2138 -376 -2076 -378 -2085 -366 -2153 22 -135 106 -255 219 -315 53 -28 105
-40 447 -102 213 -39 404 -70 424 -70 96 0 215 53 291 130 98 98 95 88 234
854 68 378 127 690 130 693 3 3 28 10 56 14 99 16 187 71 248 154 l21 30 1
-97 c0 -82 -17 -191 -100 -648 -55 -303 -100 -568 -100 -588 0 -103 55 -225
135 -301 92 -87 119 -96 514 -167 196 -35 381 -67 412 -71 157 -16 334 88 408
239 27 56 47 155 172 848 137 759 143 788 180 865 21 44 42 99 45 123 6 38 5
42 -15 42 -11 0 -21 3 -21 7 0 4 95 529 210 1168 116 638 210 1179 210 1201 0
147 -102 309 -235 375 -52 26 -121 41 -409 94 -190 35 -369 66 -398 70 -118
15 -254 -35 -347 -126 -98 -96 -91 -67 -282 -1134 -95 -528 -174 -961 -175
-963 0 -1 -24 13 -52 32 -60 40 -138 71 -205 81 -26 4 -47 12 -47 19 0 6 61
346 135 756 74 410 135 768 135 797 0 175 -128 347 -300 401 -56 18 -752 142
-790 141 -19 -1 -55 -5 -80 -10z m501 -113 c383 -70 430 -85 501 -159 62 -63
96 -132 108 -218 10 -73 8 -89 -128 -834 l-138 -760 -108 -12 c-172 -19 -277
-63 -365 -153 -39 -40 -101 -149 -101 -176 0 -17 14 -20 170 -40 119 -15 125
-15 135 3 6 10 28 37 50 59 41 43 103 68 149 62 l22 -3 -22 -124 c-13 -68 -28
-127 -34 -131 -7 -4 -42 -10 -78 -14 -79 -7 -198 -38 -253 -66 -155 -79 -216
-259 -153 -445 37 -107 166 -198 302 -212 38 -4 52 -10 52 -21 0 -9 -54 -315
-120 -681 -89 -490 -127 -680 -145 -718 -31 -69 -111 -148 -183 -181 -96 -44
-161 -42 -492 18 -408 74 -429 78 -493 112 -112 60 -186 173 -194 297 -5 61
178 1097 713 4036 14 76 35 163 45 191 32 85 92 150 179 194 107 55 164 53
581 -24z m1850 5 c433 -79 447 -83 522 -156 79 -77 118 -164 118 -265 1 -42
-57 -383 -165 -981 -91 -503 -166 -919 -166 -925 0 -5 -16 23 -35 62 -25 51
-53 88 -99 131 -112 106 -230 147 -411 146 -177 -2 -307 -53 -417 -164 -227
-231 -223 -697 6 -923 110 -108 239 -157 416 -158 150 0 270 35 369 109 29 22
32 23 28 7 -4 -11 -65 -343 -136 -739 -72 -396 -135 -736 -141 -755 -26 -90
-128 -192 -230 -231 -80 -30 -157 -24 -512 41 -348 63 -396 73 -442 97 -52 27
-127 107 -159 168 -55 108 -53 134 58 745 53 294 99 545 102 558 5 21 9 22
129 22 l125 0 -3 468 -3 467 -28 55 -28 55 135 745 c74 410 151 835 170 945
20 110 41 220 48 245 44 174 186 288 358 290 39 0 199 -24 391 -59z m-1445
-2257 c61 -29 94 -119 64 -174 -16 -29 -160 -67 -160 -42 0 5 9 57 20 117 11
60 20 110 20 112 0 7 25 2 56 -13z m1332 -16 c50 -23 97 -82 112 -140 9 -32
14 -37 33 -33 52 11 249 36 254 32 6 -7 -58 -360 -67 -371 -5 -5 -52 -2 -108
6 l-100 14 -16 -51 c-18 -59 -72 -120 -122 -141 -44 -19 -146 -18 -192 2 -70
29 -124 102 -152 203 -19 70 -14 236 9 309 53 170 197 241 349 170z m-1260
-487 c-3 -94 -5 -101 -34 -138 -55 -67 -137 -109 -203 -101 l-27 3 26 144 26
145 93 17 c51 10 96 21 99 24 18 18 24 -5 20 -94z m-268 47 c0 -2 -11 -63 -25
-137 -14 -74 -25 -136 -25 -138 0 -1 -7 -3 -16 -3 -9 0 -34 17 -55 39 -33 33
-39 45 -39 82 0 63 29 105 93 134 47 23 67 29 67 23z"/>
<path d="M9873 10394 c-60 -22 -127 -86 -160 -152 l-28 -57 -3 108 -3 107
-154 0 -155 0 0 -605 0 -605 159 0 159 0 4 373 3 373 30 60 c53 103 161 147
308 126 l58 -9 -3 146 -3 146 -85 2 c-55 1 -100 -4 -127 -13z"/>
<path d="M4494 10839 c-144 -18 -264 -72 -357 -159 -122 -114 -170 -262 -136
-422 17 -79 50 -137 113 -196 83 -78 185 -123 417 -182 202 -51 266 -74 312
-111 75 -59 76 -171 1 -241 -68 -64 -204 -92 -326 -68 -136 26 -203 91 -232
223 l-6 27 -165 0 -165 0 0 -32 c1 -62 29 -169 62 -230 68 -129 210 -228 378
-265 108 -24 331 -23 435 0 291 67 441 262 414 538 -22 214 -173 333 -544 428
-105 27 -212 59 -238 71 -127 60 -154 190 -56 273 52 45 114 62 220 61 74 0
95 -5 144 -29 62 -30 109 -89 121 -152 l6 -33 164 0 164 0 0 28 c0 39 -27 148
-46 185 -107 212 -378 326 -680 286z"/>
<path d="M12820 10005 l0 -815 165 0 165 0 0 191 0 192 42 46 c23 25 45 47 48
49 3 1 80 -106 170 -238 l165 -239 198 -1 c144 0 196 3 191 11 -4 6 -108 155
-231 330 -123 176 -226 326 -229 333 -5 12 272 343 424 509 l26 27 -197 0
-196 0 -196 -227 c-108 -126 -201 -229 -206 -231 -5 -2 -9 173 -9 437 l0 441
-165 0 -165 0 0 -815z"/>
<path d="M6030 10404 c-30 -8 -78 -30 -105 -49 -45 -31 -63 -51 -120 -130 -13
-18 -14 -10 -15 78 l0 97 -165 0 -165 0 0 -835 0 -835 165 0 165 0 0 327 0
327 28 -45 c37 -57 103 -116 158 -140 56 -25 151 -36 238 -27 195 19 362 189
413 418 24 111 21 321 -6 423 -41 155 -135 288 -248 350 -99 53 -235 70 -343
41z m132 -286 c48 -26 101 -97 120 -161 8 -24 13 -95 13 -167 0 -144 -17 -205
-73 -271 -53 -62 -101 -82 -188 -77 -61 3 -79 8 -116 34 -53 37 -103 118 -119
193 -17 85 -7 255 19 314 36 81 82 128 151 154 51 19 140 10 193 -19z"/>
<path d="M14450 10405 c-212 -48 -368 -203 -427 -425 -24 -90 -23 -300 1 -390
55 -204 203 -355 395 -405 293 -75 589 32 698 252 20 40 34 75 32 77 -5 5
-300 48 -303 44 -66 -109 -116 -138 -236 -138 -149 1 -238 72 -269 218 -6 29
-11 57 -11 62 0 6 160 10 416 10 l416 0 -4 133 c-4 110 -9 144 -31 206 -61
173 -187 295 -357 346 -78 23 -240 28 -320 10z m257 -266 c24 -11 57 -37 73
-57 27 -33 60 -114 60 -149 0 -10 -50 -13 -254 -13 l-254 0 9 43 c16 69 59
128 119 165 48 28 62 32 129 32 55 0 86 -5 118 -21z"/>
<path d="M15920 10407 c-98 -22 -162 -75 -206 -172 l-23 -50 0 108 -1 107
-160 0 -160 0 0 -605 0 -605 164 0 164 0 4 373 c4 421 4 426 85 498 57 51 97
62 214 57 l99 -4 0 148 0 148 -27 0 c-16 0 -44 2 -63 5 -19 2 -60 -1 -90 -8z"/>
</g>
</svg>
